<?xml version="1.0" encoding="utf-8"?>
<svg version="1.1" xmlns:xlink="http://www.w3.org/1999/xlink" width="80px" height="80px" xmlns="http://www.w3.org/2000/svg">
  <g transform="matrix(1 0 0 1 -716 -84 )">
    <path d="M 38.2736635605689 34.140625  C 35.3310446297205 38.046875  31.7802844531633 40  27.6213830308975 40  C 23.4624816086317 40  19.9117214320745 38.046875  16.9691025012261 34.140625  C 14.0264835703776 30.234375  12.5551741049534 25.5208333333333  12.5551741049534 20  C 12.5551741049534 14.4791666666667  14.0264835703776 9.765625  16.9691025012261 5.859375  C 19.9117214320745 1.953125  23.4624816086317 0  27.6213830308975 0  C 31.7802844531633 0  35.3310446297205 1.953125  38.2736635605689 5.859375  C 41.2162824914174 9.765625  42.6875919568416 14.4791666666667  42.6875919568416 20  C 42.6875919568416 25.5208333333333  41.2162824914174 30.234375  38.2736635605689 34.140625  Z M 79.6468857282982 43.6979166666667  L 69.8773908778813 56.6666666666667  L 79.6468857282982 69.6354166666667  C 79.8822952427661 69.9479166666667  80 70.3472222222222  80 70.8333333333333  C 80 71.2847222222222  79.8822952427661 71.6666666666667  79.6468857282982 71.9791666666667  L 74.310936733693 79.0625  C 74.0755272192251 79.375  73.7878044793199 79.53125  73.4477685139774 79.53125  C 73.0815759359163 79.53125  72.7807748896518 79.375  72.5453653751839 79.0625  L 62.775870524767 66.09375  L 53.0063756743502 79.0625  C 52.7709661598823 79.375  52.4701651136178 79.53125  52.1039725355567 79.53125  C 51.7639365702142 79.53125  51.476213830309 79.375  51.2408043158411 79.0625  L 45.9048553212359 71.9791666666667  C 45.669445806768 71.6666666666667  45.5517410495341 71.2847222222222  45.5517410495341 70.8333333333333  C 45.5517410495341 70.3472222222222  45.669445806768 69.9479166666667  45.9048553212359 69.6354166666667  L 55.6743501716528 56.6666666666667  L 45.9048553212359 43.6979166666667  C 45.669445806768 43.3854166666667  45.5517410495341 42.9861111111111  45.5517410495341 42.5  C 45.5517410495341 42.0486111111111  45.669445806768 41.6666666666667  45.9048553212359 41.3541666666667  L 51.2408043158411 34.2708333333333  C 51.476213830309 33.9583333333333  51.7639365702142 33.8020833333333  52.1039725355567 33.8020833333333  C 52.4701651136178 33.8020833333333  52.7709661598823 33.9583333333333  53.0063756743502 34.2708333333333  L 62.775870524767 47.2395833333333  L 72.5453653751839 34.2708333333333  C 72.7807748896518 33.9583333333333  73.0815759359163 33.8020833333333  73.4477685139774 33.8020833333333  C 73.7878044793199 33.8020833333333  74.0755272192251 33.9583333333333  74.310936733693 34.2708333333333  L 79.6468857282982 41.3541666666667  C 79.8822952427661 41.6666666666667  80 42.0486111111111  80 42.5  C 80 42.9861111111111  79.8822952427661 43.3854166666667  79.6468857282982 43.6979166666667  Z M 43.2368808239333 47.2395833333333  L 50.3384011770476 56.6666666666667  L 43.2368808239333 66.09375  C 42.2690861533432 67.3784722222222  41.7851888180481 68.9583333333333  41.7851888180481 70.8333333333333  C 41.7851888180481 72.6736111111111  42.2690861533432 74.2361111111111  43.2368808239333 75.5208333333333  L 46.4933791074056 79.84375  C 45.9440902403139 79.9479166666667  45.3686447605035 80  44.7670426679745 80  L 10.4757233938205 80  C 7.31077325486349 80  4.77358182115416 78.8020833333333  2.8641490926925 76.40625  C 0.954716364230832 74.0104166666667  0 70.7118055555556  0 66.5104166666667  C 0 64.6701388888889  0.0457740722576426 62.8732638888889  0.137322216772928 61.1197916666667  C 0.228870361288213 59.3663194444444  0.411966650318784 57.4739583333333  0.68661108386464 55.4427083333333  C 0.961255517410495 53.4114583333333  1.30783063593265 51.5277777777778  1.72633643943109 49.7916666666667  C 2.14484224292954 48.0555555555556  2.70720941638058 46.3628472222222  3.41343795978421 44.7135416666667  C 4.11966650318784 43.0642361111111  4.93052149746608 41.6579861111111  5.84600294261893 40.4947916666667  C 6.76148438777178 39.3315972222222  7.8796795814942 38.4027777777778  9.20058852378617 37.7083333333333  C 10.5214974660781 37.0138888888889  11.979728625143 36.6666666666667  13.5752820009809 36.6666666666667  C 14.0722576426353 36.6666666666667  14.582311590649 36.9618055555556  15.1054438450221 37.5520833333333  C 19.1335622036946 41.7881944444444  23.3055419323198 43.90625  27.6213830308975 43.90625  C 31.9372241294752 43.90625  36.1092038581004 41.7881944444444  40.1373222167729 37.5520833333333  C 40.660454471146 36.9618055555556  41.1705084191597 36.6666666666667  41.6674840608141 36.6666666666667  C 42.3998692169364 36.6666666666667  43.145332679418 36.7708333333333  43.9038744482589 36.9791666666667  C 43.1714892921367 37.9166666666667  42.6352787314043 38.7847222222222  42.2952427660618 39.5833333333333  C 41.9552068007193 40.3819444444444  41.7851888180481 41.3541666666667  41.7851888180481 42.5  C 41.7851888180481 44.375  42.2690861533432 45.9548611111111  43.2368808239333 47.2395833333333  Z " fill-rule="nonzero" fill="#000000" stroke="none" transform="matrix(1 0 0 1 716 84 )" />
  </g>
</svg>