<?xml version="1.0" encoding="utf-8"?>
<svg version="1.1" xmlns:xlink="http://www.w3.org/1999/xlink" width="50px" height="50px" xmlns="http://www.w3.org/2000/svg">
  <g transform="matrix(1 0 0 1 -11 -54 )">
    <path d="M 49.5419921875 10.48046875  C 50.15234375 9.869140625  50.15234375 8.880859375  49.5419921875 8.2705078125  L 45.3125 4.0400390625  C 44.7265625 3.4541015625  43.931640625 3.125  43.1025390625 4  L 28.125 4  L 28.125 1.5625  C 28.125 0.69921875  27.42578125 0  26.5625 0  L 23.4375 0  C 22.57421875 0  21.875 0.69921875  21.875 1.5625  L 21.875 4  L 5.46875 4  C 4.1748046875 3.125  3.125 4.1748046875  3.125 5.46875  L 3.125 13.28125  C 3.125 14.5751953125  4.1748046875 15.625  5.46875 16  L 43.1025390625 16  C 43.931640625 15.625  44.7255859375 15.2958984375  45.3125 14.7099609375  L 49.5419921875 10.48046875  Z M 22 37.5  L 22 48.4375  C 21.875 49.30078125  22.57421875 50  23.4375 50  L 26.5625 50  C 27.42578125 50  28.125 49.30078125  28 48.4375  L 28 37.5  L 22 37.5  Z M 46.875 24.21875  C 46.875 22.9248046875  45.8251953125 21.875  44.53125 22  L 28.125 22  L 28.125 18.75  L 21.875 18.75  L 21.875 22  L 6.8974609375 22  C 6.068359375 21.875  5.2744140625 22.2041015625  4.6875 22.7900390625  L 0.4580078125 27.0205078125  C -0.15234375 27.630859375  -0.15234375 28.6201171875  0.4580078125 29.23046875  L 4.6875 33.4599609375  C 5.2734375 34.0458984375  6.068359375 34.375  6.8974609375 34  L 44.53125 34  C 45.8251953125 34.375  46.875 33.3251953125  46.875 32.03125  L 46.875 24.21875  Z " fill-rule="nonzero" fill="#ffffff" stroke="none" transform="matrix(1 0 0 1 11 54 )" />
  </g>
</svg>