<?xml version="1.0" encoding="utf-8"?>
<svg version="1.1" xmlns:xlink="http://www.w3.org/1999/xlink" width="50px" height="40px" xmlns="http://www.w3.org/2000/svg">
  <g transform="matrix(1 0 0 1 -530 -181 )">
    <path d="M 15 22.5  C 15 23.88046875  16.11953125 25  17.5 25  L 20 25  L 20 7.5  L 17.5 7.5  C 16.11953125 7.5  15 8.61953125  15 10  L 15 22.5  Z M 42.5 25  C 43.88046875 25  45 23.88046875  45 22.5  L 45 10  C 45 8.61953125  43.88046875 7.5  42.5 7.5  L 40 7.5  L 40 25  L 42.5 25  Z M 50 31.25  C 50 30.559375  49.440625 30  48.75 30  L 10 30  L 10 1.25  C 10 0.559375  9.440625 0  8.75 0  L 1.25 0  C 0.559375 0  0 0.559375  0 1.25  L 0 3.75  C 0 4.440625  0.559375 5  1.25 5  L 5 5  L 5 33.75  C 5 34.440625  5.559375 35  6.25 35  L 12.7296875 35  C 12.58984375 35.39296875  12.5 35.809375  12.5 36.25  C 12.5 38.32109375  14.17890625 40  16.25 40  C 18.32109375 40  20 38.32109375  20 36.25  C 20 35.809375  19.91015625 35.39296875  19.7703125 35  L 35.2296875 35  C 35.08984375 35.39296875  35 35.809375  35 36.25  C 35 38.32109375  36.67890625 40  38.75 40  C 40.82109375 40  42.5 38.32109375  42.5 36.25  C 42.5 35.809375  42.41015625 35.39296875  42.2703125 35  L 48.75 35  C 49.440625 35  50 34.440625  50 33.75  L 50 31.25  Z M 37 25  L 37 7.5  L 37.5 3.75  C 37.5 1.67890625  35.82109375 0  33.75 0  L 26.25 0  C 24.17890625 0  22.5 1.67890625  23 3.75  L 23 25  L 37 25  Z M 33.75 3.75  L 33.75 7.5  L 26.25 7.5  L 26.25 3.75  L 33.75 3.75  Z " fill-rule="nonzero" fill="#000000" stroke="none" transform="matrix(1 0 0 1 530 181 )" />
  </g>
</svg>