<?xml version="1.0" encoding="utf-8"?>
<svg version="1.1" xmlns:xlink="http://www.w3.org/1999/xlink" width="50px" height="50px" xmlns="http://www.w3.org/2000/svg">
  <g transform="matrix(1 0 0 1 -750 -87 )">
    <path d="M 49.794921875 29  C 50.42060546875 25.174171539961  49.63330078125 20.0928849902534  47.17275390625 15.6633528265107  C 48.2328125 13.2681286549708  49.26494140625 9.77270955165692  49.26494140625 7.09892787524366  C 49.26494140625 0.0110136452241715  41.4875 -2.48888888888889  28.7890625 3.33898635477583  C 18.278125 2.63908382066277  8.16201171874999 10.519298245614  5.63496093749999 21.5121832358674  C 8.64785156249999 18.1143274853801  13.27861328125 13.4909356725146  17.54677734375 11.6527290448343  C 12.246484375 16.359649122807  7.72734375 22.3198830409357  4.29609375 28.530701754386  C 2.2701171875 32.2271929824561  0 38.2007797270955  0 42.6653996101365  C 0 52.2730994152047  9.0677734375 51.0961988304094  17.60263671875 46.7595516569201  C 20.6712890625 48.2634502923977  24.1025390625 48.27738791423  27.5337890625 48.27738791423  C 37.0185546875 48.27738791423  45.52685546875 42.9855750487329  48.70703125 34  L 36.90693359375 34  C 31.7791015625 42.6800194931774  17.686328125 39.2105263157895  17.686328125 29  L 49.794921875 29  Z M 16.09619140625 45.9240740740741  C 7.430078125 50.6940545808967  -0.824414062500001 48.7599415204678  6.30458984375 33.9061403508772  C 8.0341796875 38.8915204678363  11.5490234375 43.2502923976608  16.09619140625 45.9240740740741  Z M 37.93916015625 24  L 17.63046875 24  C 17.82578125 17.919395711501  22.540234375 14.0480506822612  27.784765625 14.0480506822612  C 33.0013671875 14.0480506822612  37.74384765625 17.919395711501  37.93916015625 24  Z M 46.61474609375 14.7163742690059  C 44.04833984375 10.5943469785575  40.17080078125 6.76471734892788  35.6515625 5.01013645224172  C 37.74384765625 4.00750487329435  40.39404296875 2.86559454191033  42.7373046875 2.86559454191033  C 45.805859375 2.86559454191033  48.0375 4.982261208577  48.0375 8.10165692007797  C 48.0375 10.0512670565302  47.31220703125 12.8781676413255  46.61474609375 14.7163742690059  Z " fill-rule="nonzero" fill="#000000" stroke="none" transform="matrix(1 0 0 1 750 87 )" />
  </g>
</svg>