<?xml version="1.0" encoding="utf-8"?>
<svg version="1.1" xmlns:xlink="http://www.w3.org/1999/xlink" width="50px" height="50px" xmlns="http://www.w3.org/2000/svg">
  <g transform="matrix(1 0 0 1 -614 -90 )">
    <path d="M 45.8888888888889 23.9600389863548  C 49.5019493177388 20.3469785575049  50.7329434697856 15.2543859649123  49.583820662768 10.6335282651072  C 49.3654970760234 9.75341130604289  48.2641325536062 9.4551656920078  47.6228070175439 10.0964912280702  L 40.3752436647173 17.3440545808967  L 33.7592592592593 16.2417153996101  L 32.6569200779727 9.62573099415205  L 39.9044834307992 2.37816764132554  C 40.5497076023392 1.73294346978557  40.2387914230019 0.633528265107212  39.3528265107212 0.413255360623781  C 34.7348927875244 -0.730994152046784  29.6500974658869 0.501949317738791  26.0409356725146 4.11013645224171  C 22.17738791423 7.97368421052632  21.1140350877193 13.5740740740741  22.7222222222222 18.4571150097466  L 1.92397660818713 39.2553606237817  C -0.511695906432749 41.6910331384016  -0.511695906432749 45.640350877193  1.92397660818713 48.0760233918129  C 4.35964912280702 50.5116959064327  8.30896686159844 50.5116959064327  10.7446393762183 48.0760233918129  L 31.5253411306043 27.2953216374269  C 36.4103313840156 28.9239766081871  42 27.8489278752437  45.8888888888889 23.9600389863548  Z M 8.67446393762183 43.6647173489279  C 8.67446393762183 44.9561403508772  7.62670565302144 46.0038986354776  6.33528265107212 46.0038986354776  C 5.04385964912281 46.0038986354776  3.99610136452242 44.9561403508772  3.99610136452242 43.6647173489279  C 3.99610136452242 42.3723196881092  5.04385964912281 41.3255360623782  6.33528265107212 41.3255360623782  C 7.62670565302144 41.3255360623782  8.67446393762183 42.3723196881092  8.67446393762183 43.6647173489279  Z " fill-rule="nonzero" fill="#000000" stroke="none" transform="matrix(1 0 0 1 614 90 )" />
  </g>
</svg>