<?xml version="1.0" encoding="utf-8"?>
<svg version="1.1" xmlns:xlink="http://www.w3.org/1999/xlink" width="29px" height="25px" xmlns="http://www.w3.org/2000/svg">
  <g transform="matrix(1 0 0 1 -918 -6 )">
    <path d="M 20.673828125 3.21451822916667  C 18.7588355654762 2.46039496527778  16.7008928571429 2.08333333333333  14.5 2.08333333333333  C 12.2991071428571 2.08333333333333  10.2411644345238 2.46039496527778  8.326171875 3.21451822916667  C 6.41117931547619 3.96864149305556  4.88997395833333 4.98589409722222  3.76255580357143 6.26627604166667  C 2.63513764880952 7.54665798611111  2.07142857142857 8.93012152777778  2.07142857142857 10.4166666666667  C 2.07142857142857 11.6319444444444  2.45712425595238 12.7902560763889  3.228515625 13.8916015625  C 3.99990699404762 14.9929470486111  5.08686755952381 15.9450954861111  6.48939732142857 16.748046875  L 7.89732142857143 17.5618489583333  L 7.46037946428571 19.1243489583333  C 7.20145089285714 20.1117621527778  6.82384672619048 21.044921875  6.32756696428571 21.923828125  C 7.96744791666667 21.240234375  9.45089285714286 20.3125  10.7779017857143 19.140625  L 11.4737723214286 18.5221354166667  L 12.3962053571429 18.6197916666667  C 13.140625 18.7065972222222  13.8418898809524 18.75  14.5 18.75  C 16.7008928571429 18.75  18.7588355654762 18.3729383680556  20.673828125 17.6188151041667  C 22.5888206845238 16.8646918402778  24.1100260416667 15.8474392361111  25.2374441964286 14.5670572916667  C 26.3648623511905 13.2866753472222  26.9285714285714 11.9032118055556  26.9285714285714 10.4166666666667  C 26.9285714285714 8.93012152777778  26.3648623511905 7.54665798611111  25.2374441964286 6.26627604166667  C 24.1100260416667 4.98589409722222  22.5888206845238 3.96864149305556  20.673828125 3.21451822916667  Z M 27.0580357142857 5.18391927083333  C 28.3526785714286 6.78439670138889  29 8.52864583333333  29 10.4166666666667  C 29 12.3046875  28.3526785714286 14.0489366319444  27.0580357142857 15.6494140625  C 25.7633928571429 17.2498914930556  24.0048363095238 18.5139973958333  21.7823660714286 19.4417317708333  C 19.5598958333333 20.3694661458333  17.1324404761905 20.8333333333333  14.5 20.8333333333333  C 13.7447916666667 20.8333333333333  12.9626116071429 20.7899305555556  12.1534598214286 20.703125  C 10.0172991071429 22.6019965277778  7.53590029761905 23.9149305555556  4.70926339285714 24.6419270833333  C 4.18061755952381 24.7938368055556  3.56566220238095 24.9131944444444  2.86439732142857 25  L 2.78348214285714 25  C 2.62165178571429 25  2.47600446428571 24.9430338541667  2.34654017857143 24.8291015625  C 2.21707589285714 24.7151692708333  2.13076636904762 24.5659722222222  2.08761160714286 24.3815104166667  L 2.08761160714286 24.365234375  C 2.05524553571429 24.3218315972222  2.05254836309524 24.2567274305556  2.07952008928571 24.169921875  C 2.10649181547619 24.0831163194444  2.11728050595238 24.0288628472222  2.11188616071429 24.0071614583333  C 2.10649181547619 23.9854600694444  2.13076636904762 23.9339192708333  2.18470982142857 23.8525390625  L 2.28180803571429 23.7060546875  C 2.28180803571429 23.7060546875  2.31956845238095 23.6599392361111  2.39508928571429 23.5677083333333  C 2.47061011904762 23.4754774305556  2.51376488095238 23.4266493055556  2.52455357142857 23.4212239583333  C 2.60007440476191 23.3344184027778  2.76729910714286 23.1472439236111  3.02622767857143 22.8597005208333  C 3.28515625 22.5721571180556  3.47126116071429 22.3659939236111  3.58454241071429 22.2412109375  C 3.69782366071429 22.1164279513889  3.86504836309524 21.9021267361111  4.08621651785714 21.5983072916667  C 4.30738467261905 21.2944878472222  4.48270089285714 21.0177951388889  4.61216517857143 20.7682291666667  C 4.74162946428571 20.5186631944444  4.88727678571429 20.1985677083333  5.04910714285714 19.8079427083333  C 5.2109375 19.4173177083333  5.35119047619048 19.0049913194444  5.46986607142857 18.5709635416667  C 3.77604166666667 17.6052517361111  2.4409412202381 16.4116753472222  1.46456473214286 14.990234375  C 0.488188244047619 13.5687934027778  0 12.0442708333333  0 10.4166666666667  C 0 8.52864583333333  0.647321428571429 6.78439670138889  1.94196428571429 5.18391927083333  C 3.23660714285714 3.58344184027778  4.99516369047619 2.3193359375  7.21763392857143 1.3916015625  C 9.44010416666667 0.4638671875  11.8675595238095 0  14.5 0  C 17.1324404761905 0  19.5598958333333 0.4638671875  21.7823660714286 1.3916015625  C 24.0048363095238 2.3193359375  25.7633928571429 3.58344184027778  27.0580357142857 5.18391927083333  Z " fill-rule="nonzero" fill="#000000" stroke="none" transform="matrix(1 0 0 1 918 6 )" />
  </g>
</svg>