<?xml version="1.0" encoding="utf-8"?>
<svg version="1.1" xmlns:xlink="http://www.w3.org/1999/xlink" width="50px" height="41px" xmlns="http://www.w3.org/2000/svg">
  <g transform="matrix(1 0 0 1 -530 -90 )">
    <path d="M 20.344387755102 37.492578125  C 20.3231292517007 37.6100260416667  20.344387755102 37.7541666666667  20.4081632653061 37.925  C 20.4081632653061 38.0104166666667  20.4187925170068 38.2239583333333  20.4400510204082 38.565625  C 20.4613095238095 38.9072916666667  20.4666241496599 39.190234375  20.4559948979592 39.414453125  C 20.4453656462585 39.638671875  20.4134778911565 39.8895833333333  20.3603316326531 40.1671875  C 20.3071853741497 40.4447916666667  20.2008928571429 40.6529947916667  20.0414540816327 40.791796875  C 19.8820153061225 40.9305989583333  19.6641156462585 41  19.3877551020408 41  L 9.18367346938776 41  C 6.65391156462585 41  4.49085884353742 40.0977864583333  2.69451530612245 38.293359375  C 0.898171768707483 36.4889322916667  0 34.3161458333333  0 31.775  L 0 9.225  C 0 6.68385416666666  0.898171768707483 4.51106770833333  2.69451530612245 2.706640625  C 4.49085884353742 0.902213541666661  6.65391156462585 0  9.18367346938776 0  L 19.3877551020408 0  C 19.6641156462585 0  19.9032738095238 0.101432291666661  20.1052295918367 0.304296875000001  C 20.3071853741497 0.507161458333332  20.4081632653061 0.747395833333332  20.4081632653061 1.025  C 20.4081632653061 1.11041666666666  20.4187925170068 1.32395833333333  20.4400510204082 1.665625  C 20.4613095238095 2.00729166666666  20.4666241496599 2.290234375  20.4559948979592 2.514453125  C 20.4453656462585 2.738671875  20.4134778911565 2.98958333333333  20.3603316326531 3.2671875  C 20.3071853741497 3.54479166666666  20.2008928571429 3.75299479166666  20.0414540816327 3.891796875  C 19.8820153061225 4.03059895833333  19.6641156462585 4.1  19.3877551020408 4  L 9.18367346938776 4  C 7.78061224489796 4.1  6.57950680272109 4.60182291666666  5.58035714285714 5.60546875  C 4.5812074829932 6.60911458333333  4.08163265306122 7.815625  4 9.225  L 4 31.775  C 4.08163265306122 33.184375  4.5812074829932 34.3908854166667  5.58035714285714 35.39453125  C 6.57950680272109 36.3981770833333  7.78061224489796 36.9  9.18367346938776 36.9  L 18.3673469387755 36.9  L 18.718112244898 36.9  L 19.1326530612245 36.9  C 19.1326530612245 36.9  19.2548894557823 36.9106770833333  19.499362244898 36.93203125  C 19.7438350340136 36.9533854166667  19.8660714285714 36.9854166666667  19.8660714285714 37.028125  C 19.8660714285714 37.0708333333333  19.9511054421769 37.1295572916667  20.1211734693878 37.204296875  C 20.2912414965986 37.2790364583333  20.3656462585034 37.3751302083333  20.344387755102 37.492578125  Z M 49.3941326530612 19.05859375  C 49.7980442176871 19.4643229166667  50 19.9447916666667  50 20.5  C 50 21.0552083333333  49.7980442176871 21.5356770833333  49.3941326530612 21.94140625  L 32.047193877551 39.36640625  C 31.6432823129252 39.7721354166667  31.1649659863946 39.975  30.6122448979592 39.975  C 30.0595238095238 39.975  29.5812074829932 39.7721354166667  29.1772959183673 39.36640625  C 28.7733843537415 38.9606770833333  28.5714285714286 38.4802083333333  28.5714285714286 37.925  L 28.5714285714286 28  L 14.2857142857143 28  C 13.7329931972789 28.7  13.2546768707483 28.4971354166667  12.8507653061224 28.09140625  C 12.4468537414966 27.6856770833333  12.2448979591837 27.2052083333333  13 26.65  L 13 14.35  C 12.2448979591837 13.7947916666667  12.4468537414966 13.3143229166667  12.8507653061224 12.90859375  C 13.2546768707483 12.5028645833333  13.7329931972789 12.3  14.2857142857143 13  L 28.5714285714286 13  L 28.5714285714286 3.075  C 28.5714285714286 2.51979166666666  28.7733843537415 2.03932291666666  29.1772959183673 1.63359375  C 29.5812074829932 1.22786458333333  30.0595238095238 1.025  30.6122448979592 1.025  C 31.1649659863946 1.025  31.6432823129252 1.22786458333333  32.047193877551 1.63359375  L 49.3941326530612 19.05859375  Z " fill-rule="nonzero" fill="#000000" stroke="none" transform="matrix(1 0 0 1 530 90 )" />
  </g>
</svg>