<?xml version="1.0" encoding="utf-8"?>
<svg version="1.1" xmlns:xlink="http://www.w3.org/1999/xlink" width="46px" height="46px" xmlns="http://www.w3.org/2000/svg">
  <g transform="matrix(1 0 0 1 -15 -375 )">
    <path d="M 12.2666666666667 16.4285714285714  C 12.2666666666667 18.8072916666667  12.9135416666667 20.9977678571429  14.2072916666667 23  C 11.6197916666667 23.0855654761905  9.50347222222222 24.1808035714286  7.85833333333333 26.2857142857143  L 4.64791666666667 26.2857142857143  C 3.33819444444444 26.2857142857143  2.23611111111111 25.9391741071429  1.34166666666667 25.24609375  C 0.447222222222222 24.5530133928571  0 23.5390625  0 22.2042410714286  C 0 16.1633184523809  0.990277777777778 13.1428571428571  2.97083333333333 13.1428571428571  C 3.06666666666667 13.1428571428571  3.4140625 13.3225446428571  4.01302083333333 13.6819196428571  C 4.61197916666667 14.0412946428571  5.390625 14.4049479166667  6.34895833333333 14.7728794642857  C 7.30729166666667 15.1408110119048  8.25763888888889 15.3247767857143  9.2 15.3247767857143  C 10.2701388888889 15.3247767857143  11.3322916666667 15.1279761904762  12.3864583333333 14.734375  C 12.3065972222222 15.3675595238095  12.2666666666667 15.9322916666667  12.2666666666667 16.4285714285714  Z M 39.7828125 36.6947544642857  C 39.8387152777778 37.5589657738095  39.8666666666667 38.444568452381  39.8666666666667 39.3515625  C 39.8666666666667 41.4051339285714  39.2836805555556 43.026599702381  38.1177083333333 44.2159598214286  C 36.9517361111111 45.4053199404762  35.4024305555556 46  33.4697916666667 46  L 12.5302083333333 46  C 10.5975694444444 46  9.04826388888889 45.4053199404762  7.88229166666667 44.2159598214286  C 6.71631944444445 43.026599702381  6.13333333333333 41.4051339285714  6.13333333333333 39.3515625  C 6.13333333333333 38.444568452381  6.16128472222222 37.5589657738095  6.2171875 36.6947544642857  C 6.27309027777778 35.8305431547619  6.38489583333333 34.8978794642857  6.55260416666667 33.8967633928571  C 6.7203125 32.8956473214286  6.93194444444445 31.9672619047619  7.1875 31.1116071428571  C 7.44305555555556 30.2559523809524  7.78645833333333 29.4216889880952  8.21770833333333 28.6088169642857  C 8.64895833333333 27.7959449404762  9.14409722222222 27.1028645833333  9.703125 26.5295758928571  C 10.2621527777778 25.956287202381  10.9449652777778 25.4985119047619  11.7515625 25.15625  C 12.5581597222222 24.8139880952381  13.4486111111111 24.6428571428571  14.4229166666667 24.6428571428571  C 14.5826388888889 24.6428571428571  14.9260416666667 24.8268229166667  15.453125 25.1947544642857  C 15.9802083333333 25.5626860119048  16.5631944444444 25.973400297619  17.2020833333333 26.4268973214286  C 17.8409722222222 26.8803943452381  18.6954861111111 27.2911086309524  19.765625 27.6590401785714  C 20.8357638888889 28.0269717261905  21.9138888888889 28.2109375  23 28.2109375  C 24.0861111111111 28.2109375  25.1642361111111 28.0269717261905  26.234375 27.6590401785714  C 27.3045138888889 27.2911086309524  28.1590277777778 26.8803943452381  28.7979166666667 26.4268973214286  C 29.4368055555556 25.973400297619  30.0197916666667 25.5626860119048  30.546875 25.1947544642857  C 31.0739583333333 24.8268229166667  31.4173611111111 24.6428571428571  31.5770833333333 24.6428571428571  C 32.5513888888889 24.6428571428571  33.4418402777778 24.8139880952381  34.2484375 25.15625  C 35.0550347222222 25.4985119047619  35.7378472222222 25.956287202381  36.296875 26.5295758928571  C 36.8559027777778 27.1028645833333  37.3510416666667 27.7959449404762  37.7822916666667 28.6088169642857  C 38.2135416666667 29.4216889880952  38.5569444444444 30.2559523809524  38.8125 31.1116071428571  C 39.0680555555556 31.9672619047619  39.2796875 32.8956473214286  39.4473958333333 33.8967633928571  C 39.6151041666667 34.8978794642857  39.7269097222222 35.8305431547619  39.7828125 36.6947544642857  Z M 13.5364583333333 1.92522321428572  C 14.734375 3.20870535714286  15.3333333333333 4.75744047619047  15.3333333333333 6.57142857142857  C 15.3333333333333 8.38541666666666  14.734375 9.93415178571428  13.5364583333333 11.2176339285714  C 12.3385416666667 12.5011160714286  10.8930555555556 13.1428571428571  9.2 13.1428571428571  C 7.50694444444445 13.1428571428571  6.06145833333333 12.5011160714286  4.86354166666667 11.2176339285714  C 3.665625 9.93415178571428  3.06666666666667 8.38541666666666  3.06666666666667 6.57142857142857  C 3.06666666666667 4.75744047619047  3.665625 3.20870535714286  4.86354166666667 1.92522321428572  C 6.06145833333333 0.641741071428574  7.50694444444445 0  9.2 0  C 10.8930555555556 0  12.3385416666667 0.641741071428574  13.5364583333333 1.92522321428572  Z M 29.5046875 9.45926339285714  C 31.3015625 11.3844866071429  32.2 13.7075892857143  32.2 16.4285714285714  C 32.2 19.1495535714286  31.3015625 21.47265625  29.5046875 23.3978794642857  C 27.7078125 25.3231026785714  25.5395833333333 26.2857142857143  23 26.2857142857143  C 20.4604166666667 26.2857142857143  18.2921875 25.3231026785714  16.4953125 23.3978794642857  C 14.6984375 21.47265625  13.8 19.1495535714286  13.8 16.4285714285714  C 13.8 13.7075892857143  14.6984375 11.3844866071429  16.4953125 9.45926339285714  C 18.2921875 7.53404017857143  20.4604166666667 6.57142857142857  23 6.57142857142857  C 25.5395833333333 6.57142857142857  27.7078125 7.53404017857143  29.5046875 9.45926339285714  Z M 43.0291666666667 13.1428571428571  C 45.0097222222222 13.1428571428571  46 16.1633184523809  46 22.2042410714286  C 46 23.5390625  45.5527777777778 24.5530133928571  44.6583333333333 25.24609375  C 43.7638888888889 25.9391741071429  42.6618055555556 26.2857142857143  41.3520833333333 26.2857142857143  L 38.1416666666667 26.2857142857143  C 36.4965277777778 24.1808035714286  34.3802083333333 23.0855654761905  31.7927083333333 23  C 33.0864583333333 20.9977678571429  33.7333333333333 18.8072916666667  33.7333333333333 16.4285714285714  C 33.7333333333333 15.9322916666667  33.6934027777778 15.3675595238095  33.6135416666667 14.734375  C 34.6677083333333 15.1279761904762  35.7298611111111 15.3247767857143  36.8 15.3247767857143  C 37.7423611111111 15.3247767857143  38.6927083333333 15.1408110119048  39.6510416666667 14.7728794642857  C 40.609375 14.4049479166667  41.3880208333333 14.0412946428571  41.9869791666667 13.6819196428571  C 42.5859375 13.3225446428571  42.9333333333333 13.1428571428571  43.0291666666667 13.1428571428571  Z M 41.1364583333333 1.92522321428572  C 42.334375 3.20870535714286  42.9333333333333 4.75744047619047  42.9333333333333 6.57142857142857  C 42.9333333333333 8.38541666666666  42.334375 9.93415178571428  41.1364583333333 11.2176339285714  C 39.9385416666667 12.5011160714286  38.4930555555556 13.1428571428571  36.8 13.1428571428571  C 35.1069444444444 13.1428571428571  33.6614583333333 12.5011160714286  32.4635416666667 11.2176339285714  C 31.265625 9.93415178571428  30.6666666666667 8.38541666666666  30.6666666666667 6.57142857142857  C 30.6666666666667 4.75744047619047  31.265625 3.20870535714286  32.4635416666667 1.92522321428572  C 33.6614583333333 0.641741071428574  35.1069444444444 0  36.8 0  C 38.4930555555556 0  39.9385416666667 0.641741071428574  41.1364583333333 1.92522321428572  Z " fill-rule="nonzero" fill="#ffffff" stroke="none" transform="matrix(1 0 0 1 15 375 )" />
  </g>
</svg>