<?xml version="1.0" encoding="utf-8"?>
<svg version="1.1" xmlns:xlink="http://www.w3.org/1999/xlink" width="50px" height="33px" xmlns="http://www.w3.org/2000/svg">
  <g transform="matrix(1 0 0 1 -750 -191 )">
    <path d="M 49.9913194444445 28.8921875  C 50 28.2046875  49.4965277777778 27.56875  48.7934027777778 27.49140625  C 46.9270833333333 27.28515625  45.1388888888889 26.5890625  43.7673611111111 25.5234375  C 42.5434027777778 24.56953125  40.7986111111111 24.55234375  39.5833333333333 25.5234375  C 36.2934027777778 28.1359375  30.2777777777778 28.1359375  26.9357638888889 25.39453125  C 25.7638888888889 24.43203125  24.0711805555556 24.6125  22.8819444444445 25.54921875  C 19.5833333333333 28.1359375  13.6024305555556 28.12734375  10.2777777777778 25.403125  C 9.10590277777779 24.440625  7.38715277777779 24.63828125  6.18923611111112 25.575  C 4.84375000000001 26.6234375  3.06423611111112 27.30234375  1.18055555555556 27.5  C 0.494791666666675 27.56875  0 28.1703125  0 28.84921875  L 0 31.61640625  C 0 32.3984375  0.65972222222223 33.06015625  1.44965277777779 32.99140625  C 3.94965277777779 32.7765625  6.31944444444445 32.01171875  8.3420138888889 30.765625  C 13.2465277777778 33.7390625  20.234375 33.69609375  25.0086805555556 30.765625  C 29.9131944444445 33.7390625  36.9010416666667 33.69609375  41.6753472222222 30.765625  C 43.6979166666667 31.9859375  46.09375 32.76796875  48.5416666666667 32.9828125  C 49.3315972222222 33.0515625  49.9913194444445 32.38984375  49.9913194444445 31.6078125  L 49.9913194444445 28.8921875  Z M 49.9913194444445 16.5171875  C 50 15.8296875  49.4965277777778 15.19375  48.7934027777778 15.11640625  C 46.9270833333333 14.91015625  45.1388888888889 14.2140625  43.7673611111111 13.1484375  C 42.5434027777778 12.19453125  40.7986111111111 12.17734375  39.5833333333333 13.1484375  C 36.2934027777778 15.7609375  30.2777777777778 15.7609375  26.9357638888889 13.01953125  C 25.7638888888889 12.05703125  24.0711805555556 12.2375  22.8819444444445 13.17421875  C 19.5833333333333 15.7609375  13.6024305555556 15.75234375  10.2777777777778 13.028125  C 9.10590277777779 12.065625  7.38715277777779 12.26328125  6.18923611111112 13.2  C 4.84375000000001 14.2484375  3.06423611111112 14.92734375  1.18055555555556 15.125  C 0.494791666666675 15.19375  0 15.7953125  0 16.47421875  L 0 19.24140625  C 0 20.0234375  0.65972222222223 20.68515625  1.44965277777779 20.61640625  C 3.94965277777779 20.4015625  6.31944444444445 19.63671875  8.3420138888889 18.390625  C 13.2465277777778 21.3640625  20.234375 21.32109375  25.0086805555556 18.390625  C 29.9131944444445 21.3640625  36.9010416666667 21.32109375  41.6753472222222 18.390625  C 43.6979166666667 19.6109375  46.09375 20.39296875  48.5416666666667 20.6078125  C 49.3315972222222 20.6765625  49.9913194444445 20.01484375  49.9913194444445 19.2328125  L 49.9913194444445 16.5171875  Z M 49.9913194444445 4.1421875  C 50 3.4546875  49.4965277777778 2.81875  48.7934027777778 2.74140625  C 46.9270833333333 2.5265625  45.1388888888889 1.8390625  43.7673611111111 0.7734375  C 42.5434027777778 -0.18046875  40.7986111111111 -0.19765625  39.5833333333333 0.7734375  C 36.2934027777778 3.3859375  30.2777777777778 3.3859375  26.9357638888889 0.64453125  C 25.7638888888889 -0.31796875  24.0711805555556 -0.1375  22.8819444444444 0.79921875  C 19.5833333333333 3.3859375  13.6024305555556 3.37734375  10.2777777777778 0.653125  C 9.10590277777778 -0.309375000000001  7.38715277777778 -0.11171875  6.18923611111112 0.825  C 4.84375 1.8734375  3.06423611111111 2.55234375  1.18055555555556 2.75  C 0.49479166666667 2.81875  0 3.4203125  0 4.09921875  L 0 6.86640625  C 0 7.6484375  0.659722222222225 8.31015625  1.44965277777778 8.24140625  C 3.94965277777778 8.0265625  6.31944444444445 7.26171875  8.34201388888889 6.015625  C 13.2465277777778 8.9890625  20.234375 8.94609375  25.0086805555556 6.015625  C 29.9131944444444 8.9890625  36.9010416666667 8.94609375  41.6753472222222 6.015625  C 43.6979166666667 7.2359375  46.09375 8.01796875  48.5416666666667 8.2328125  C 49.3315972222222 8.3015625  49.9913194444445 7.63984375  49.9913194444445 6.8578125  L 49.9913194444445 4.1421875  Z " fill-rule="nonzero" fill="#000000" stroke="none" transform="matrix(1 0 0 1 750 191 )" />
  </g>
</svg>